<?xml version="1.0" encoding="utf-8"?>
<!-- Generator: Adobe Illustrator 25.3.1, SVG Export Plug-In . SVG Version: 6.00 Build 0)  -->
<svg version="1.1" id="Icon" xmlns="http://www.w3.org/2000/svg" xmlns:xlink="http://www.w3.org/1999/xlink" x="0px" y="0px"
	 viewBox="0 0 127.4 127.4" style="enable-background:new 0 0 127.4 127.4;" xml:space="preserve">
<style type="text/css">
	.st0{fill:#FFFFFF;}
</style>
<path class="st0" d="M63.7,1.7c-34.2,0-62,27.8-62,62s27.8,62,62,62s62-27.8,62-62S97.9,1.7,63.7,1.7z M73.7,87.3l-8.9,8.9
	c-9.3,9.3-24.3,9.3-33.6,0s-9.3-24.3,0-33.6l8.9-8.9c9.3-9.3,24.3-9.3,33.6,0c2,2,3.5,4.2,4.7,6.7l-2.2,2.2c-3.1,3.1-8.2,3.1-11.3,0
	c-4.4-4.4-11.4-4.4-15.8,0l-8.9,8.9c-4.4,4.4-4.4,11.4,0,15.8c4.4,4.4,11.4,4.4,15.8,0l5.2-5.2c5.1,1.9,10.7,2.2,16,0.9
	C76.2,84.5,75,85.9,73.7,87.3z M96.2,64.8l-8.9,8.9C78,83,63,83,53.7,73.7c-2-2-3.5-4.3-4.7-6.7l2.2-2.2c3.1-3.1,8.2-3.1,11.3,0
	c4.4,4.4,11.4,4.4,15.8,0l8.9-8.9c4.4-4.4,4.4-11.4,0-15.8c-4.4-4.4-11.4-4.4-15.8,0l-5.2,5.2c-5.1-1.9-10.7-2.2-16-0.9
	c0.9-1.5,2.1-3,3.4-4.3l8.9-8.9c9.3-9.3,24.3-9.3,33.6,0C105.4,40.5,105.4,55.6,96.2,64.8z"/>
</svg>
