<?xml version="1.0" encoding="utf-8"?>
<!-- Generator: Adobe Illustrator 25.3.1, SVG Export Plug-In . SVG Version: 6.00 Build 0)  -->
<svg version="1.1" id="Layer_1" xmlns="http://www.w3.org/2000/svg" xmlns:xlink="http://www.w3.org/1999/xlink" x="0px" y="0px"
	 viewBox="0 0 1800 274" style="enable-background:new 0 0 1800 274;" xml:space="preserve">
<style type="text/css">
	.st0{fill:#665DFE;}
	.st1{fill:#FFFFFF;}
	.st2{fill:#24242B;}
</style>
<circle class="st0" cx="138.9" cy="136.6" r="127.9"/>
<g>
	<path class="st1" d="M157.6,185.3l-18.4,18.4c-19.2,19.2-50.1,19.2-69.3,0s-19.2-50.1,0-69.3L88.3,116c19.2-19.2,50.1-19.2,69.3,0
		c4.1,4.1,7.2,8.7,9.7,13.8l-4.5,4.5c-6.4,6.4-16.9,6.4-23.3,0c-9.1-9.1-23.5-9.1-32.6,0l-18.4,18.4c-9.1,9.1-9.1,23.5,0,32.6
		c9.1,9.1,23.5,9.1,32.6,0l10.7-10.7c10.5,3.9,22.1,4.5,33,1.9C162.8,179.5,160.3,182.4,157.6,185.3z"/>
	<path class="st1" d="M116.4,157.2c-4.1-4.1-7.2-8.9-9.7-13.8l4.5-4.5c6.4-6.4,16.9-6.4,23.3,0c9.1,9.1,23.5,9.1,32.6,0l18.4-18.4
		c9.1-9.1,9.1-23.5,0-32.6c-9.1-9.1-23.5-9.1-32.6,0l-10.7,10.7c-10.5-3.9-22.1-4.5-33-1.9c1.9-3.1,4.3-6.2,7-8.9l18.4-18.4
		c19.2-19.2,50.1-19.2,69.3,0s19.2,50.3,0.2,69.3l-18.4,18.4C166.5,176.4,135.5,176.4,116.4,157.2z"/>
</g>
<g>
	<path class="st2" d="M342.2,56.6h36.1v137.3h71.8l-4.1,29.6H342.2V56.6z"/>
	<path class="st2" d="M489.9,168.3c0,15.7,7.9,31,25.1,31c14.4,0,18.6-5.8,21.9-13.4h34.7c-4.4,15.3-18.1,40.5-57.5,40.5
		c-41.3,0-59.2-30.9-59.2-63.7c0-39.3,20.2-67.4,60.4-67.4c43,0,57.7,31.1,57.7,62.4c0,4.2,0,7-0.5,10.6H489.9z M538.3,147
		c-0.2-14.6-6.1-26.9-23-26.9c-16.6,0-23.3,11.5-24.7,26.9H538.3z"/>
	<path class="st2" d="M690.8,191.1c0,11.9,1,29.3,1.7,32.4h-33.1c-1-2.5-1.7-9.1-1.8-12.2c-4.5,7-13.1,15.1-35.2,15.1
		c-30.2,0-42.9-19.9-42.9-39.3c0-28.5,22.9-41.7,59.6-41.7c6.1,0,13.7,0,17.9,0v-7.7c0-8.9-3.2-17.7-19.3-17.7
		c-14.6,0-17.8,6.2-19.4,15.3h-33c1.9-22.3,15.6-40.3,53.7-40.1c33.6,0.2,51.8,13.3,51.8,43.1V191.1z M657,166.5
		c-2.9,0-9.6,0-14.1,0c-20.9,0-28.7,6.4-28.7,18.5c0,9.1,5.6,16.7,18,16.7c22,0,24.8-15.3,24.8-31.9V166.5z"/>
	<path class="st2" d="M826.8,46.8v142.2c0,11.4,0,23,0.2,34.4h-33.4c-0.7-3.8-1.4-10.2-1.6-13.1c-6.1,9.9-16.8,16-35.5,16
		c-31.7,0-51.8-25.4-51.8-64.5c0-38.6,21.4-66.6,56.9-66.6c18,0,27.7,6.4,30.5,12V46.8H826.8z M740.3,161c0,24.4,9.5,37.6,26.5,37.6
		c23.9,0,26.6-19.9,26.6-37.9c0-21.4-3-37.6-25.7-37.6C749.5,123.1,740.3,137.3,740.3,161z"/>
	<path class="st2" d="M872.2,185.8c2.6,10,10.8,15.6,23.7,15.6c12.8,0,17.5-4.6,17.5-12.2c0-8-5.4-11.2-23.3-15.6
		c-40.8-10.1-47.5-22.7-47.5-40.4c0-18.4,13-37.9,50.8-37.9c38,0,50.9,20.7,51.9,37.7h-33c-1.1-4.6-4.2-13.4-20.5-13.4
		c-11.5,0-15.2,5.1-15.2,10.7c0,6.2,3.9,9.2,24.2,14c41.8,9.7,47.7,24,47.7,42.4c0,20.7-15.8,39.6-54,39.6
		c-38,0-53.7-18.4-56.5-40.6H872.2z"/>
	<path class="st2" d="M948.2,98.2h19.3V64.3h34.7v33.9h24.5v26.1h-24.5v61.8c0,9.5,2.9,13.2,13.2,13.2c1.9,0,5.3,0,7.9-0.4v23.9
		c-6.9,2.3-16.3,2.4-23.3,2.4c-24.4,0-32.5-13.1-32.5-35v-65.9h-19.3V98.2z"/>
	<path class="st2" d="M1152.7,160.6c0,37.9-22.7,65.8-62.4,65.8c-38.9,0-61.5-27.7-61.5-65.1c0-38.7,23.4-66,63.2-66
		C1128.9,95.3,1152.7,121.3,1152.7,160.6z M1064,160.8c0,24.1,10.4,38.4,27.1,38.4c17,0,26.4-14.3,26.4-38.2
		c0-26.2-9.6-38.6-26.9-38.6C1074.5,122.4,1064,134.4,1064,160.8z"/>
	<path class="st2" d="M1324.2,183c-4.3,20.9-19,43.4-56.3,43.4c-39,0-59-27-59-64.6c0-37,22.6-66.5,60.7-66.5
		c42.2,0,54,30.3,54.7,44.5h-33.9c-2.1-10.2-7.9-17.3-21.5-17.3c-15.9,0-24.8,13.9-24.8,38.2c0,26.7,9.5,38.8,24.7,38.8
		c11.9,0,18.3-7,21.4-16.5H1324.2z"/>
	<path class="st2" d="M1370.5,46.8V113c5.5-8.1,15.7-17.7,35.9-17.7c23.4,0,42,13.8,42,47.8v80.4h-34.5v-75.2
		c0-16.3-5.8-24.9-20.3-24.9c-19.3,0-23.1,14.3-23.1,33.7v66.5h-34.7V46.8H1370.5z"/>
	<path class="st2" d="M1572.3,191.1c0,11.9,1,29.3,1.7,32.4h-33.1c-1-2.5-1.7-9.1-1.8-12.2c-4.5,7-13.1,15.1-35.2,15.1
		c-30.2,0-42.9-19.9-42.9-39.3c0-28.5,22.9-41.7,59.6-41.7c6.1,0,13.7,0,17.9,0v-7.7c0-8.9-3.2-17.7-19.3-17.7
		c-14.6,0-17.8,6.2-19.4,15.3h-33c1.9-22.3,15.6-40.3,53.7-40.1c33.6,0.2,51.8,13.3,51.8,43.1V191.1z M1538.5,166.5
		c-2.9,0-9.6,0-14.1,0c-20.9,0-28.7,6.4-28.7,18.5c0,9.1,5.6,16.7,18,16.7c22,0,24.8-15.3,24.8-31.9V166.5z"/>
	<path class="st2" d="M1579.4,98.2h19.3V64.3h34.7v33.9h24.5v26.1h-24.5v61.8c0,9.5,2.9,13.2,13.2,13.2c1.9,0,5.3,0,7.9-0.4v23.9
		c-6.9,2.3-16.3,2.4-23.3,2.4c-24.4,0-32.5-13.1-32.5-35v-65.9h-19.3V98.2z"/>
	<path class="st2" d="M1794.6,97.4c0,22.5-17.7,40.2-40.7,40.2c-22.8,0-40.9-17.7-40.9-40.2c0-22,18.2-39.7,40.9-39.7
		C1776.9,57.7,1794.6,75.4,1794.6,97.4z M1723.2,97.4c0,17.7,13.1,31.7,31,31.7c17.4,0,30.3-14,30.3-31.5
		c0-17.7-12.8-31.9-30.5-31.9C1736.3,65.7,1723.2,80,1723.2,97.4z M1747.6,118.2h-9.2V78.5c3.6-0.7,8.7-1.2,15.2-1.2
		c7.5,0,10.9,1.2,13.8,2.9c2.2,1.7,3.9,4.8,3.9,8.7c0,4.4-3.4,7.7-8.2,9.2v0.5c3.9,1.5,6.1,4.4,7.3,9.7c1.2,6.1,1.9,8.5,2.9,9.9
		h-9.9c-1.2-1.5-1.9-5.1-3.1-9.7c-0.7-4.4-3.1-6.3-8.2-6.3h-4.4V118.2z M1747.9,95.7h4.4c5.1,0,9.2-1.7,9.2-5.8
		c0-3.6-2.7-6.1-8.5-6.1c-2.4,0-4.1,0.2-5.1,0.5V95.7z"/>
</g>
</svg>
